HIERARCHY
ROOT Hips
{
	OFFSET -131.695496 91.669037 -190.067505
	CHANNELS 6 Xposition Yposition Zposition Zrotation Yrotation Xrotation 
	JOINT LeftUpLeg
	{
		OFFSET 0.103456 1.857829 10.548507
		CHANNELS 3 Zrotation Yrotation Xrotation
		JOINT LeftLeg
		{
			OFFSET 43.500000 -0.000031 0.000008
			CHANNELS 3 Zrotation Yrotation Xrotation
			JOINT LeftFoot
			{
				OFFSET 42.372200 0.000015 -0.000002
				CHANNELS 3 Zrotation Yrotation Xrotation
				JOINT LeftToe
				{
					OFFSET 17.299992 -0.000004 0.000000
					CHANNELS 3 Zrotation Yrotation Xrotation
					End Site
					{
						OFFSET 0.000000 0.000000 0.000000
					}
				}
			}
		}
	}
	JOINT RightUpLeg
	{
		OFFSET 0.103460 1.857824 -10.548508
		CHANNELS 3 Zrotation Yrotation Xrotation
		JOINT RightLeg
		{
			OFFSET 43.500042 -0.000019 0.000004
			CHANNELS 3 Zrotation Yrotation Xrotation
			JOINT RightFoot
			{
				OFFSET 42.372265 -0.000019 0.000016
				CHANNELS 3 Zrotation Yrotation Xrotation
				JOINT RightToe
				{
					OFFSET 17.299999 -0.000001 -0.000006
					CHANNELS 3 Zrotation Yrotation Xrotation
					End Site
					{
						OFFSET 0.000000 0.000000 0.000000
					}
				}
			}
		}
	}
	JOINT Spine
	{
		OFFSET 6.901965 -2.603734 0.000001
		CHANNELS 3 Zrotation Yrotation Xrotation
		JOINT Spine1
		{
			OFFSET 12.588102 0.000006 -0.000006
			CHANNELS 3 Zrotation Yrotation Xrotation
			JOINT Spine2
			{
				OFFSET 12.343201 -0.000002 0.000010
				CHANNELS 3 Zrotation Yrotation Xrotation
				JOINT Neck
				{
					OFFSET 25.832899 -0.000004 -0.000009
					CHANNELS 3 Zrotation Yrotation Xrotation
					JOINT Head
					{
						OFFSET 11.766603 0.000001 0.000007
						CHANNELS 3 Zrotation Yrotation Xrotation
						End Site
						{
							OFFSET 0.000000 0.000000 0.000000
						}
					}
				}
				JOINT LeftShoulder
				{
					OFFSET 19.745899 -1.480371 6.000098
					CHANNELS 3 Zrotation Yrotation Xrotation
					JOINT LeftArm
					{
						OFFSET 11.284129 -0.000011 -0.000015
						CHANNELS 3 Zrotation Yrotation Xrotation
						JOINT LeftForeArm
						{
							OFFSET 33.000046 0.000011 0.000030
							CHANNELS 3 Zrotation Yrotation Xrotation
							JOINT LeftHand
							{
								OFFSET 25.200010 0.000012 -0.000000
								CHANNELS 3 Zrotation Yrotation Xrotation
								End Site
								{
									OFFSET 0.000000 0.000000 0.000000
								}
							}
						}
					}
				}
				JOINT RightShoulder
				{
					OFFSET 19.746092 -1.480375 -6.000075
					CHANNELS 3 Zrotation Yrotation Xrotation
					JOINT RightArm
					{
						OFFSET 11.284135 -0.000010 -0.000014
						CHANNELS 3 Zrotation Yrotation Xrotation
						JOINT RightForeArm
						{
							OFFSET 33.000092 0.000016 0.000013
							CHANNELS 3 Zrotation Yrotation Xrotation
							JOINT RightHand
							{
								OFFSET 25.199780 0.000135 0.000426
								CHANNELS 3 Zrotation Yrotation Xrotation
								End Site
								{
									OFFSET 0.000000 0.000000 0.000000
								}
							}
						}
					}
				}
			}
		}
	}
}
MOTION
Frames: 11
Frame Time: 0.033333
93.881592 85.567337 -493.199005 90.244298 -1.592399 170.269048 142.083999 -0.087096 -176.213567 -19.354092 -3.698251 -0.634146 63.4846 -0.747341 -3.385713 21.454553 0.003089 -1e-06 -165.378196 2.905594 -178.714468 -20.540494 6.690241 3.962167 94.082188 -2.969938 -0.988296 21.45457 -0.003105 -1.6e-05 10.458154 -0.430266 3.831008 10.863637 -1.218642 7.604841 10.548513 -1.172692 7.612006 11.742476 -16.386671 -16.070021 -13.155338 23.07515 -25.371667 92.961491 -85.831149 85.669068 15.7716 26.236712 69.644079 -88.367075 -4.740568 2.56439 -5.146856 9.915105 50.692902 60.905043 84.469619 -117.715046 -62.376709 -9.829601 16.647162 -91.445236 5.14031 -2.770844 -8.080796 3.515776 -46.436646 
98.860359 83.98362 -492.906891 90.7818 -1.011364 170.849 144.21536 0.351196 179.675803 -23.527574 -3.060459 -2.192938 63.503329 0.134771 -3.999962 21.454555 0.003093 1e-06 -164.705941 2.040404 -177.02125 -27.045881 4.731664 3.504934 93.009411 -2.550749 -0.139256 21.454557 -0.00311 -1.8e-05 10.203637 -0.466939 3.62841 10.355555 -1.256937 7.200663 10.040122 -1.213408 7.20807 18.91529 -11.217311 -15.595709 -15.658239 21.306323 -24.003593 112.847566 -86.32603 65.741015 16.181039 28.348623 67.837275 -85.110571 -5.637198 2.483697 -6.728554 6.342172 51.974987 56.935142 85.646973 -121.592066 -64.375277 -13.308311 17.060716 -89.844486 6.438384 -2.790201 -5.143374 2.289396 -48.942987 
103.232498 83.296967 -492.882294 91.513306 -2.755705 171.052006 145.189741 2.042099 170.46782 -27.038398 -0.990293 1.311397 57.922408 0.498851 3.016378 21.454557 0.003092 0.0 -167.573678 3.705794 -173.027762 -38.176297 0.981363 2.483904 86.130659 -1.701042 0.388466 21.454557 -0.003112 -1.8e-05 10.268766 -1.075395 3.160324 10.461037 -2.43223 6.211594 10.14467 -2.394611 6.226099 22.699097 -6.493977 -14.373812 -16.972487 19.25368 -22.147677 153.40165 -85.425941 25.115961 16.546741 31.884614 62.594381 -81.352607 -7.063469 2.419451 -9.090229 1.676098 57.092397 69.253146 87.556154 -109.209814 -66.18594 -18.510475 19.178729 -89.602533 6.510868 -2.784479 -3.871829 2.044563 -48.943435 
107.594902 82.173393 -492.875 92.842283 -5.041314 171.719002 143.675065 4.014298 170.334959 -36.720528 -2.288735 0.880372 63.269893 1.808315 5.768767 21.454551 0.003093 0.0 -173.494441 6.712799 -170.46278 -55.336997 -2.253674 2.769556 76.408097 -1.335732 2.062865 21.454563 -0.003106 -1.9e-05 10.795234 -1.83017 2.511748 11.501816 -3.901048 4.831448 11.184175 -3.871699 4.854879 22.775694 -4.356152 -13.60514 -17.492294 18.746967 -21.32382 172.986835 -82.212002 5.495941 15.638087 36.13893 53.796185 -76.534592 -8.829907 2.335952 -12.546012 -4.807795 59.284792 138.997109 87.993669 -39.454048 -66.538685 -24.3071 22.664441 -91.477331 4.959354 -2.75961 -3.880809 2.00619 -48.766417 
112.377701 81.706688 -492.84549 94.841398 -6.319932 172.512943 145.698071 5.3208 170.824821 -42.617396 -3.943539 0.756854 69.250967 1.943111 6.762028 21.454553 0.003091 -0.0 -179.716265 9.286102 -171.847382 -72.713818 -2.482376 4.101167 69.036164 -1.663475 3.427812 21.454563 -0.003109 -1.6e-05 11.505019 -2.219895 1.991592 12.93198 -4.648541 3.724956 12.613493 -4.625842 3.752971 22.842319 -4.926177 -13.658929 -17.574082 18.530518 -21.298111 170.100206 -79.567394 8.500993 12.293441 43.475008 42.262106 -70.596214 -11.130523 2.248014 -13.301759 -12.276439 53.40264 156.373124 85.223446 -22.177932 -63.578365 -31.227041 24.254869 -93.174142 3.550046 -2.736966 -5.527653 2.523717 -47.835773 
116.941803 81.791237 -492.957397 96.243007 -6.800484 172.645025 148.531862 6.538098 170.855529 -45.814249 -3.99366 0.57927 74.050206 1.861822 7.095964 21.454548 0.003092 -0.0 172.780113 9.748094 -174.02557 -86.614681 -3.826574 5.298994 69.628273 -2.500097 3.323193 21.45455 -0.00311 -1.8e-05 12.011629 -2.322067 1.770114 13.953926 -4.840711 3.249348 13.635169 -4.820876 3.278556 21.956681 -6.035541 -13.389701 -14.753036 18.191563 -20.323551 167.911089 -77.870556 10.782953 3.49438 52.144482 25.721412 -66.077921 -13.042662 2.198056 -11.546472 -16.196388 45.505637 170.438 83.184505 -8.08397 -60.492158 -38.271326 21.958223 -91.585023 4.629392 -2.741338 -8.98381 4.579048 -46.850853 
121.1241 82.605721 -493.023895 96.408516 -7.234269 173.816034 151.769412 8.079697 171.309737 -45.630195 -3.707382 0.811435 76.940824 1.619171 7.533688 21.454551 0.003092 -0.0 164.115075 9.505707 -176.065475 -96.27808 -4.372084 5.843698 72.69817 -3.404013 1.801673 21.454555 -0.003106 -1.8e-05 12.234694 -2.31301 1.452331 14.414421 -4.78895 2.606672 14.095453 -4.77299 2.635594 22.075233 -6.415081 -12.714879 -13.950988 18.265423 -19.469825 168.615787 -76.700012 10.107067 -12.782229 57.963676 4.961779 -63.324945 -13.208912 2.102145 -10.569876 -18.275459 41.605353 177.114004 80.483739 -1.397977 -54.477527 -45.339568 16.667094 -87.925674 6.941879 -2.739871 -12.908092 7.448554 -47.158829 
124.992203 84.253952 -493.033295 95.150088 -7.332873 175.59497 155.292192 9.340301 173.356608 -42.001237 -3.921639 0.909762 77.893123 1.572556 7.849069 21.454553 0.003092 0.0 154.611468 8.667602 -177.783335 -100.788696 -4.505627 6.563596 72.74635 -4.013287 1.482961 21.454568 -0.003108 -1.5e-05 12.113476 -2.032644 1.118897 14.187206 -4.187163 1.980842 13.868405 -4.17499 2.006132 22.080106 -7.806415 -12.21908 -13.793247 19.234113 -19.205891 168.079303 -76.350033 10.666001 -30.616688 59.304511 -8.086315 -61.658918 -13.957612 2.089715 -8.194285 -19.990852 34.036294 -178.249018 77.876601 3.269039 -44.522428 -51.685056 9.132161 -84.029092 9.420414 -2.740667 -16.199978 9.745664 -48.031359 
128.886505 86.43425 -492.99649 93.754913 -7.120287 177.538938 160.277274 10.500198 176.01112 -35.307328 -3.502899 0.941427 77.247356 1.529214 7.631982 21.454555 0.003092 -0.0 146.670239 7.575303 -179.257386 -99.993512 -4.357221 7.06051 72.28689 -4.504339 1.11695 21.454551 -0.003109 -1.7e-05 11.946378 -1.576151 0.689167 13.86865 -3.223557 1.184546 13.550092 -3.216209 1.204018 20.207156 -8.975564 -11.39108 -12.505692 19.108632 -18.117908 165.306834 -77.820969 13.435051 -44.975092 58.633124 -13.36204 -62.10217 -14.790867 2.16343 -8.256219 -15.133152 34.52383 -174.503902 75.11379 7.061043 -30.711983 -55.604799 -0.632935 -80.858887 10.974202 -2.71008 -19.694929 12.37822 -48.555559 
132.9272 88.805321 -492.757904 92.193784 -5.371712 179.728997 166.244414 9.708206 179.93688 -26.652996 -3.248162 0.841327 75.592395 1.566517 7.134525 21.454551 0.003092 -0.0 141.022875 5.6698 -179.430436 -94.556265 -3.811677 7.207659 71.964041 -4.445453 1.778318 21.454558 -0.003109 -1.7e-05 11.645343 -0.6985 0.2309 13.276488 -1.418912 0.380042 12.958304 -1.416455 0.388615 18.070821 -10.463589 -10.619481 -11.398035 19.242806 -17.280809 159.559598 -79.503115 19.198967 -53.899232 56.788747 -13.402875 -65.860099 -14.952957 2.320885 -10.8659 -8.37716 42.924208 -170.691892 73.169023 10.957041 -14.776949 -56.504304 -11.711456 -79.564874 11.468052 -2.688135 -20.169689 14.887408 -45.658363 
137.048203 90.527023 -492.411896 89.972292 -3.117526 -178.448978 171.075653 7.419006 -176.653895 -18.483154 -3.54142 0.712756 74.21536 1.628234 6.715384 21.454551 0.003092 -0.0 136.310809 3.492798 -179.587694 -86.237162 -2.647352 7.747542 71.134043 -4.8091 2.060324 21.454555 -0.00311 -1.7e-05 11.053003 0.269981 -0.277092 12.091994 0.567399 -0.524416 11.773919 0.564358 -0.527825 15.632273 -11.557419 -9.608496 -10.787055 19.542281 -16.422804 154.456791 -81.444549 24.266948 -59.704111 54.702596 -12.975686 -72.039139 -13.385841 2.463756 -10.651351 -2.361913 53.351612 -166.951912 72.2934 14.800043 0.825103 -54.583129 -22.273407 -79.616332 10.75619 -2.640508 -18.411492 17.099768 -41.076303 
